#!OML:ASF \\sashay\E\Suitcase\Project 1\Capture day 1\Session 1\Male1.ASF
:FULLY-SPECIFIED
:DEGREES
427
root 0.675686 17.3422 -11.3553 2.76559 0.985803 -6.00778
lowerback 2.48505 0.447665 3.70882
upperback -0.467691 0.778143 3.42846
thorax -1.87435 0.367164 1.41263
lowerneck -14.272 -1.14153 -3.19056
upperneck 26.503 -0.416058 -1.24442
head 10.9195 -0.657357 0.0392383
rclavicle 1.08835e-014 2.62396e-014
rhumerus -20.7165 -28.1659 -73.7722
rradius 20.5861
rwrist -9.5148
rhand -16.5562 27.5594
rfingers 7.12502
rthumb 9.66357 -2.19895
lclavicle 1.08835e-014 2.62396e-014
lhumerus -31.3101 -5.29563 90.3693
lradius 49.0146
lwrist -0.912571
lhand -3.57141 40.4918
lfingers 7.12502
lthumb 22.1655 69.2411
rfemur 5.79686 4.09016 33.1323
rtibia 10.9215
rfoot -13.8643 -10.4879
rtoes 15.2631
lfemur -32.9967 -4.67727 -12.3144
ltibia 28.644
lfoot -16.0386 1.37556
ltoes 0.0530278
428
root 0.679292 17.3417 -11.2446 2.94965 0.821199 -6.42782
lowerback 2.45774 0.531945 4.19218
upperback -0.764665 0.920062 3.43252
thorax -2.15783 0.426842 1.14097
lowerneck -13.9034 -1.2522 -3.15804
upperneck 26.3686 -0.67595 -0.97969
head 10.7983 -0.737769 0.0970327
rclavicle -1.11195e-014 0
rhumerus -21.0172 -27.9319 -73.828
rradius 21.0695
rwrist -9.86519
rhand -16.439 27.5446
rfingers 7.12502
rthumb 9.77658 -2.20847
lclavicle -1.11195e-014 0
lhumerus -31.7889 -5.66631 90.3734
lradius 48.368
lwrist -1.33595
lhand -3.87449 40.3705
lfingers 7.12502
lthumb 21.8745 69.1541
rfemur 6.60527 4.11817 33.5948
rtibia 9.72206
rfoot -13.5092 -10.3447
rtoes 15.5114
lfemur -33.406 -4.8828 -11.7619
ltibia 27.4918
lfoot -16.2947 1.20755
ltoes -3.85501
429
root 0.679213 17.3345 -11.1454 3.20884 0.549443 -6.66304
lowerback 2.15845 0.566724 4.29297
upperback -0.623869 0.943311 3.56192
thorax -1.84494 0.443101 1.22052
lowerneck -14.2544 -1.14289 -3.1753
upperneck 26.5869 -0.481845 -1.03436
head 10.9475 -0.6615 0.103403
rclavicle 1.15295e-014 -1.19271e-015
rhumerus -20.2352 -27.539 -74.1915
rradius 21.3748
rwrist -10.3157
rhand -16.4159 27.6248
rfingers 7.12502
rthumb 9.79888 -2.12723
lclavicle 1.15295e-014 -1.19271e-015
lhumerus -31.6958 -5.33751 90.3369
lradius 48.3037
lwrist -1.47414
lhand -3.91139 40.3749
lfingers 7.12502
lthumb 21.8391 69.1626
rfemur 7.72354 4.25961 33.8388
rtibia 7.73033
rfoot -12.6543 -10.2343
rtoes 15.0881
lfemur -34.0158 -5.01448 -11.3775
ltibia 26.6853
lfoot -16.3653 1.0439
ltoes -5.14436
430
root 0.692159 17.3406 -11.0394 3.62286 0.274049 -6.38435
lowerback 1.65762 0.568032 4.0536
upperback -0.671147 0.90563 3.4925
thorax -1.61456 0.429092 1.28858
lowerneck -14.2885 -1.09967 -3.50219
upperneck 26.2212 -0.475199 -0.552748
head 10.8192 -0.628303 0.334495
rclavicle 2.39536e-014 9.14409e-015
rhumerus -19.5679 -27.3939 -74.5515
rradius 21.4941
rwrist -10.2512
rhand -16.1828 27.6942
rfingers 7.12502
rthumb 10.0238 -2.04705
lclavicle 2.39536e-014 9.14409e-015
lhumerus -31.6606 -4.85851 90.3065
lradius 47.6579
lwrist -1.55226
lhand -3.67946 41.1146
lfingers 7.12502
lthumb 22.0617 69.8762
rfemur 8.61524 4.42767 33.42
rtibia 5.85154
rfoot -11.7119 -10.1582
rtoes 14.7363
lfemur -34.7002 -5.26164 -11.5904
ltibia 25.8139
lfoot -16.2302 1.47453
ltoes -7.62074
431
root 0.695605 17.3401 -10.9254 3.6664 -0.0694081 -6.85714
lowerback 1.7674 0.707707 4.53809
upperback -0.845785 1.12204 3.56312
thorax -1.84767 0.527541 1.08278
lowerneck -13.8342 -1.02819 -3.63536
upperneck 26.2778 -0.444803 -0.243348
head 10.7504 -0.589925 0.474315
rclavicle -3.47873e-015 2.5842e-014
rhumerus -19.7394 -27.9153 -74.4007
rradius 21.6624
rwrist -9.93096
rhand -16.151 27.8464
rfingers 7.12502
rthumb 10.0545 -1.89342
lclavicle -3.47873e-015 2.5842e-014
lhumerus -32.2519 -5.04708 90.3349
lradius 47.4023
lwrist -1.74381
lhand -3.32174 40.8773
lfingers 7.12502
lthumb 22.4051 69.5979
rfemur 10.377 4.60349 33.912
rtibia 3.19868
rfoot -10.6566 -9.91709
rtoes 15.2465
lfemur -34.8975 -5.32019 -10.9995
ltibia 25.1866
lfoot -17.0041 1.56008
ltoes -8.90828
432
root 0.70335 17.3415 -10.8423 4.10969 0.0754186 -6.55135
lowerback 1.53495 0.647908 4.27292
upperback -0.941177 1.02248 3.43473
thorax -1.81825 0.480033 1.10373
lowerneck -14.0279 -1.09272 -3.46856
upperneck 26.2538 -0.518055 -0.437143
head 10.78 -0.63054 0.365716
rclavicle -5.36719e-015 2.10712e-014
rhumerus -19.3629 -27.7033 -74.6573
rradius 21.8946
rwrist -10.2764
rhand -15.6914 27.8754
rfingers 7.12502
rthumb 10.4979 -1.84249
lclavicle -5.36719e-015 2.10712e-014
lhumerus -31.9181 -4.86414 90.2544
lradius 46.4169
lwrist -2.02255
lhand -3.51246 40.0934
lfingers 7.12502
lthumb 22.2221 68.8359
rfemur 11.8244 4.36506 33.513
rtibia 6.36111e-015
rfoot -8.85552 -9.9467
rtoes 13.9021
lfemur -35.7433 -5.58673 -11.3153
ltibia 24.5027
lfoot -17.1768 1.81636
ltoes -7.41671
433
root 0.715724 17.3336 -10.7231 4.25588 -0.337997 -6.90063
lowerback 1.45369 0.70451 4.60757
upperback -1.03474 1.10714 3.57108
thorax -1.86518 0.517418 1.05599
lowerneck -14.225 -1.1077 -3.27714
upperneck 26.3886 -0.435905 -0.951277
head 10.8675 -0.639238 0.157566
rclavicle 2.25124e-014 3.02153e-014
rhumerus -18.8166 -28.0599 -74.7445
rradius 21.6194
rwrist -9.69253
rhand -15.8069 28.2074
rfingers 7.12502
rthumb 10.3864 -1.5161
lclavicle 2.25124e-014 3.02153e-014
lhumerus -32.577 -4.28926 90.2252
lradius 46.2463
lwrist -2.61545
lhand -3.3274 40.3926
lfingers 7.12502
lthumb 22.3997 69.1138
rfemur 12.1247 4.6332 33.8313
rtibia 1.27222e-014
rfoot -9.25479 -9.90953
rtoes 14.0682
lfemur -36.0476 -5.57646 -10.9314
ltibia 24.1706
lfoot -17.6063 2.29801
ltoes -7.97268
